<svg xmlns="http://www.w3.org/2000/svg" viewBox="0 0 100 100" preserveAspectRatio="xMidYMid" width="224" height="224" style="shape-rendering: auto; display: block; background: rgb(0, 0, 0);" xmlns:xlink="http://www.w3.org/1999/xlink"><g><g transform="rotate(0 50 50)">
  <rect fill="#ffd900" height="24" width="6" ry="8.88" rx="3" y="17" x="47">
    <animate repeatCount="indefinite" begin="-1.6835016835016834s" dur="1.8518518518518516s" keyTimes="0;1" values="1;0" attributeName="opacity"></animate>
  </rect>
</g><g transform="rotate(32.72727272727273 50 50)">
  <rect fill="#ffd900" height="24" width="6" ry="8.88" rx="3" y="17" x="47">
    <animate repeatCount="indefinite" begin="-1.5151515151515151s" dur="1.8518518518518516s" keyTimes="0;1" values="1;0" attributeName="opacity"></animate>
  </rect>
</g><g transform="rotate(65.45454545454545 50 50)">
  <rect fill="#ffd900" height="24" width="6" ry="8.88" rx="3" y="17" x="47">
    <animate repeatCount="indefinite" begin="-1.3468013468013467s" dur="1.8518518518518516s" keyTimes="0;1" values="1;0" attributeName="opacity"></animate>
  </rect>
</g><g transform="rotate(98.18181818181819 50 50)">
  <rect fill="#ffd900" height="24" width="6" ry="8.88" rx="3" y="17" x="47">
    <animate repeatCount="indefinite" begin="-1.1784511784511784s" dur="1.8518518518518516s" keyTimes="0;1" values="1;0" attributeName="opacity"></animate>
  </rect>
</g><g transform="rotate(130.9090909090909 50 50)">
  <rect fill="#ffd900" height="24" width="6" ry="8.88" rx="3" y="17" x="47">
    <animate repeatCount="indefinite" begin="-1.01010101010101s" dur="1.8518518518518516s" keyTimes="0;1" values="1;0" attributeName="opacity"></animate>
  </rect>
</g><g transform="rotate(163.63636363636363 50 50)">
  <rect fill="#ffd900" height="24" width="6" ry="8.88" rx="3" y="17" x="47">
    <animate repeatCount="indefinite" begin="-0.8417508417508417s" dur="1.8518518518518516s" keyTimes="0;1" values="1;0" attributeName="opacity"></animate>
  </rect>
</g><g transform="rotate(196.36363636363637 50 50)">
  <rect fill="#ffd900" height="24" width="6" ry="8.88" rx="3" y="17" x="47">
    <animate repeatCount="indefinite" begin="-0.6734006734006733s" dur="1.8518518518518516s" keyTimes="0;1" values="1;0" attributeName="opacity"></animate>
  </rect>
</g><g transform="rotate(229.0909090909091 50 50)">
  <rect fill="#ffd900" height="24" width="6" ry="8.88" rx="3" y="17" x="47">
    <animate repeatCount="indefinite" begin="-0.505050505050505s" dur="1.8518518518518516s" keyTimes="0;1" values="1;0" attributeName="opacity"></animate>
  </rect>
</g><g transform="rotate(261.8181818181818 50 50)">
  <rect fill="#ffd900" height="24" width="6" ry="8.88" rx="3" y="17" x="47">
    <animate repeatCount="indefinite" begin="-0.33670033670033667s" dur="1.8518518518518516s" keyTimes="0;1" values="1;0" attributeName="opacity"></animate>
  </rect>
</g><g transform="rotate(294.54545454545456 50 50)">
  <rect fill="#ffd900" height="24" width="6" ry="8.88" rx="3" y="17" x="47">
    <animate repeatCount="indefinite" begin="-0.16835016835016833s" dur="1.8518518518518516s" keyTimes="0;1" values="1;0" attributeName="opacity"></animate>
  </rect>
</g><g transform="rotate(327.27272727272725 50 50)">
  <rect fill="#ffd900" height="24" width="6" ry="8.88" rx="3" y="17" x="47">
    <animate repeatCount="indefinite" begin="0s" dur="1.8518518518518516s" keyTimes="0;1" values="1;0" attributeName="opacity"></animate>
  </rect>
</g><g></g></g><!-- [ldio] generated by https://loading.io --></svg>