<svg width="13" height="16" viewBox="0 0 13 16" fill="none" xmlns="http://www.w3.org/2000/svg">
<g clip-path="url(#clip0_1439_21308)">
<path d="M10.9765 8.45416C10.9977 10.7412 12.9828 11.5022 13.0048 11.5119C12.9879 11.5656 12.6876 12.5964 11.959 13.6613C11.3291 14.5819 10.6754 15.4991 9.64554 15.5181C8.63374 15.5367 8.30832 14.9181 7.15146 14.9181C5.99493 14.9181 5.63342 15.4991 4.67555 15.5367C3.68153 15.5744 2.92458 14.5413 2.28952 13.624C0.991724 11.7478 -3.37362e-05 8.32227 1.33165 6.00997C1.99319 4.86166 3.17549 4.13456 4.45867 4.11591C5.43476 4.09731 6.3561 4.7726 6.9528 4.7726C7.54911 4.7726 8.66873 3.96051 9.84573 4.07976C10.3384 4.10029 11.7216 4.27876 12.6097 5.57877C12.5381 5.62313 10.9593 6.54222 10.9765 8.45421M9.07484 2.83849C9.60261 2.19969 9.95778 1.31046 9.86088 0.425598C9.10017 0.456168 8.18037 0.932508 7.63472 1.57093C7.14574 2.13634 6.71751 3.04124 6.83306 3.90855C7.68096 3.97416 8.54707 3.47768 9.07484 2.83849Z" fill="#09264D"/>
</g>
<defs>
<clipPath id="clip0_1439_21308">
<rect width="13.0048" height="16" fill="white"/>
</clipPath>
</defs>
</svg>
