<svg width="30" height="21" viewBox="0 0 30 21" fill="none" xmlns="http://www.w3.org/2000/svg">
<path fill-rule="evenodd" clip-rule="evenodd" d="M0.765459 6.56305C0.00434914 8.44295 -0.194793 10.5115 0.193246 12.5072C0.581238 14.5028 1.53899 16.336 2.9453 17.7748C4.35162 19.2135 6.14344 20.1934 8.09404 20.5904C10.0448 20.9873 12.0667 20.7836 13.9041 20.0049C15.7416 19.2263 17.3121 17.9076 18.417 16.2158C18.4465 16.1707 18.4756 16.1253 18.5043 16.0798C18.5246 16.0476 18.5447 16.0153 18.5647 15.9829V20.788H19.3382C21.3271 20.788 23.2713 20.1846 24.925 19.0541C26.5787 17.9238 27.8675 16.317 28.6286 14.4371C29.3898 12.5572 29.5889 10.4887 29.2008 8.49299C28.8128 6.49736 27.8552 4.66421 26.4488 3.22544C25.0425 1.78662 23.2507 0.80681 21.3001 0.409864C19.3493 0.0128701 17.3275 0.216608 15.49 0.995284C13.6525 1.77396 12.082 3.09261 10.9771 4.78443C10.9268 4.86142 10.8776 4.93909 10.8294 5.01729V0.212164H10.0559C8.06699 0.212164 6.1228 0.815553 4.46914 1.94601C2.81547 3.07642 1.52658 4.68319 0.765459 6.56305ZM9.28237 10.5001V1.83096C7.87248 1.96263 6.51259 2.4527 5.32864 3.262C3.92936 4.21852 2.83879 5.57813 2.19477 7.16876C1.55075 8.75945 1.38224 10.5097 1.71056 12.1984C2.03888 13.887 2.84928 15.4382 4.03922 16.6556C5.22921 17.873 6.74535 18.7021 8.39591 19.038C10.0465 19.3739 11.7573 19.2015 13.3121 18.5426C14.8044 17.9102 16.0886 16.8569 17.0162 15.5074C16.3132 15.8488 15.5269 16.0398 14.6971 16.0398C11.7066 16.0398 9.28237 13.5595 9.28237 10.5001ZM20.1117 19.1692V10.5001C20.1117 7.44065 17.6875 4.96044 14.6971 4.96044C13.8672 4.96044 13.0809 5.15143 12.3779 5.49283C13.3055 4.14332 14.5897 3.08994 16.082 2.45757C17.6368 1.79869 19.3476 1.6263 20.9982 1.9622C22.6488 2.29808 24.1649 3.12719 25.3549 4.34459C26.5449 5.56204 27.3553 7.11316 27.6835 8.80178C28.0119 10.4905 27.8434 12.2407 27.1993 13.8314C26.5554 15.4221 25.4648 16.7817 24.0655 17.7382C22.8816 18.5475 21.5216 19.0375 20.1117 19.1692ZM14.6197 14.4563C12.545 14.4146 10.8709 12.7017 10.8302 10.5792H12.2934C13.4477 10.8484 14.3565 11.778 14.6197 12.959V14.4563ZM14.7744 14.4563C16.849 14.4146 18.5232 12.7017 18.5639 10.5792H17.1007C15.9462 10.8484 15.0375 11.7782 14.7744 12.9593V14.4563ZM18.5639 10.421C18.5232 8.29848 16.849 6.58561 14.7744 6.54397V8.04091C15.0375 9.22197 15.9462 10.1517 17.1005 10.421H18.5639ZM14.6197 6.54397C12.5451 6.58561 10.8709 8.29848 10.8302 10.421H12.2936C13.4479 10.1517 14.3565 9.22211 14.6197 8.04121V6.54397Z" fill="#1A73E8"/>
</svg>
