<svg width="25" height="25" viewBox="0 0 25 25" fill="none" xmlns="http://www.w3.org/2000/svg">
<g clip-path="url(#clip0_38_1348)">
<path d="M24.5002 12.7988C24.5002 11.9565 24.4202 11.0869 24.2869 10.2717H12.7402V15.0815H19.3536C19.0869 16.6304 18.2069 17.9891 16.9002 18.8586L20.8469 21.9836C23.1669 19.7825 24.5002 16.576 24.5002 12.7988Z" fill="#4280EF"/>
<path d="M12.74 24.9728C16.0466 24.9728 18.82 23.8587 20.8466 21.9565L16.9 18.8587C15.8066 19.6195 14.3933 20.0543 12.74 20.0543C9.53997 20.0543 6.84664 17.8532 5.85997 14.9185L1.80664 18.0978C3.88664 22.3098 8.09997 24.9728 12.74 24.9728Z" fill="#34A353"/>
<path d="M5.85919 14.8913C5.35253 13.3424 5.35253 11.6576 5.85919 10.1087L1.80586 6.90216C0.0725261 10.4348 0.0725261 14.5924 1.80586 18.0978L5.85919 14.8913Z" fill="#F6B704"/>
<path d="M12.74 4.9728C14.4733 4.94563 16.18 5.62498 17.4333 6.8478L20.9266 3.26085C18.7133 1.14128 15.78 -2.7284e-05 12.74 0.0271466C8.09997 0.0271466 3.88664 2.69019 1.80664 6.90215L5.85997 10.1087C6.84664 7.14672 9.53997 4.9728 12.74 4.9728Z" fill="#E54335"/>
</g>
<defs>
<clipPath id="clip0_38_1348">
<rect width="24" height="25" fill="white" transform="translate(0.5)"/>
</clipPath>
</defs>
</svg>
